#!OML:ASF H:\GeneralSubjects\Female5\Project 1\Capture day 1\Session 1\Female5.ASF
:FULLY-SPECIFIED
:DEGREES
522
root -21.5171 15.6112 -5.77555 215.64 73.8603 567.581
lowerback 10.9153 -0.774511 0.723113
upperback -11.6618 0.811852 6.37712
thorax -19.9956 1.27089 6.87274
lowerneck -13.047 -3.25565 -3.29138
upperneck 36.6495 -1.53051 -2.10098
head 14.9472 -0.793358 -0.381964
rclavicle -5.56597e-015 -2.78299e-014
rhumerus -46.8257 37.6971 -93.2079
rradius 41.3459
rwrist -15.4864
rhand -26.2083 -20.1166
rfingers 7.12502
rthumb 0.344517 -50.0961
lclavicle -5.56597e-015 -2.78299e-014
lhumerus -45.5066 1.70219 92.2169
lradius 41.6747
lwrist -8.8952
lhand -24.0903 31.7338
lfingers 7.12502
lthumb 2.39019 61.7002
rfemur 1.15614 12.2187 46.2412
rtibia -4.81291
rfoot -19.6211 -22.9163
rtoes -7.92395
lfemur -36.1378 0.0707044 -11.1701
ltibia 44.071
lfoot -25.1262 14.8524
ltoes -65.7154
523
root -21.3556 15.619 -5.82811 215.463 73.9849 567.115
lowerback 10.6966 -0.778026 1.01059
upperback -11.7576 0.827082 6.17014
thorax -19.9577 1.21015 6.44827
lowerneck -13.4432 -3.33272 -3.09631
upperneck 36.1421 -1.72821 -2.26309
head 14.7905 -0.90301 -0.522717
rclavicle -1.72943e-014 4.05521e-014
rhumerus -47.4373 38.2107 -93.965
rradius 42.2876
rwrist -15.5095
rhand -26.2598 -19.8885
rfingers 7.12502
rthumb 0.294809 -49.868
lclavicle -1.72943e-014 4.05521e-014
lhumerus -45.8449 2.35821 91.3035
lradius 40.2275
lwrist -10.9282
lhand -23.3314 33.0469
lfingers 7.12502
lthumb 3.12309 63.0038
rfemur 2.2058 13.6248 46.2871
rtibia -5.81298
rfoot -19.9362 -24.4191
rtoes -8.39659
lfemur -38.2715 -2.69541 -11.1551
ltibia 41.3142
lfoot -23.8829 12.8273
ltoes -65.7975
524
root -21.188 15.6262 -5.87695 216.267 74.3137 567.831
lowerback 10.6335 -0.652265 1.27966
upperback -11.7741 1.03351 6.05125
thorax -19.9492 1.24736 6.09183
lowerneck -13.6345 -3.41238 -2.90768
upperneck 35.4014 -1.95546 -2.41658
head 14.4795 -1.02799 -0.656264
rclavicle 3.49861e-014 -9.06458e-014
rhumerus -48.211 38.671 -94.7219
rradius 43.2767
rwrist -15.5219
rhand -26.1258 -19.5657
rfingers 7.12502
rthumb 0.424237 -49.545
lclavicle 3.49861e-014 -9.06458e-014
lhumerus -46.2282 3.20156 90.1974
lradius 38.759
lwrist -12.8461
lhand -22.0855 34.566
lfingers 7.12502
lthumb 4.32621 64.5018
rfemur 3.34763 14.4212 46.526
rtibia -6.62933
rfoot -19.8219 -25.3276
rtoes -10.2075
lfemur -39.6443 -5.1992 -10.6184
ltibia 37.6831
lfoot -21.1726 13.513
ltoes -66.2862
525
root -21.0044 15.6314 -5.92701 218.249 74.6997 569.83
lowerback 10.4829 -0.464466 1.73423
upperback -11.728 1.3669 6.00091
thorax -19.8055 1.31875 5.6704
lowerneck -15.2488 -3.57439 -7.17314
upperneck 37.1278 -3.30165 4.55629
head 15.9775 -1.18986 2.82436
rclavicle -7.35503e-015 5.725e-014
rhumerus -49.2928 39.2792 -95.6716
rradius 44.3534
rwrist -15.3683
rhand -25.7154 -18.794
rfingers 7.12502
rthumb 0.820602 -48.7721
lclavicle -7.35503e-015 5.725e-014
lhumerus -46.7862 4.03857 88.9181
lradius 37.258
lwrist -13.8905
lhand -21.6097 34.3932
lfingers 7.12502
lthumb 4.78569 64.3191
rfemur 4.48332 14.5845 46.9709
rtibia -7.31458
rfoot -19.8687 -25.4026
rtoes -10.9023
lfemur -40.4866 -7.43253 -9.53083
ltibia 33.3314
lfoot -17.2206 15.8908
ltoes -67.4774
526
root -20.8093 15.6234 -5.97836 219.953 74.9035 571.398
lowerback 10.1092 -0.357785 2.20816
upperback -11.73 1.58346 5.94684
thorax -19.5544 1.33736 5.26345
lowerneck -11.0482 -3.16817 -5.76055
upperneck 29.4243 -2.88513 1.91794
head 11.5247 -1.34623 1.39875
rclavicle -2.98177e-014 1.11319e-014
rhumerus -50.5187 39.8651 -96.7021
rradius 45.2996
rwrist -14.9294
rhand -25.1052 -17.8945
rfingers 7.12502
rthumb 1.41001 -47.8695
lclavicle -2.98177e-014 1.11319e-014
lhumerus -47.4554 4.97683 87.5159
lradius 35.7211
lwrist -14.2664
lhand -22.5994 33.2678
lfingers 7.12502
lthumb 3.82999 63.2131
rfemur 5.5092 13.6941 47.3074
rtibia -8.1679
rfoot -20.3957 -24.3314
rtoes -9.4359
lfemur -41.3921 -9.98607 -8.18591
ltibia 28.7438
lfoot -11.5369 18.5173
ltoes -69.7493
527
root -20.6145 15.6152 -6.02482 222.703 75.3989 574.089
lowerback 9.96605 -0.115491 2.59425
upperback -11.7419 1.98081 5.88484
thorax -19.4913 1.45349 4.86056
lowerneck -10.8989 -3.29073 -6.05411
upperneck 27.9979 -3.13132 2.02756
head 10.9656 -1.5085 1.44011
rclavicle 2.22639e-014 -4.53229e-014
rhumerus -51.7372 40.2402 -97.7772
rradius 45.9116
rwrist -14.2125
rhand -24.3353 -17.304
rfingers 7.12502
rthumb 2.15353 -47.2729
lclavicle 2.22639e-014 -4.53229e-014
lhumerus -48.1424 6.07104 85.8735
lradius 34.1517
lwrist -14.7248
lhand -23.8118 32.7879
lfingers 7.12502
lthumb 2.65913 62.7511
rfemur 6.46422 13.1577 47.6481
rtibia -8.64397
rfoot -21.0724 -23.1395
rtoes -8.42091
lfemur -41.8252 -12.618 -6.358
ltibia 23.8382
lfoot -4.72721 19.8985
ltoes -72.8532
528
root -20.4107 15.5972 -6.07439 225.429 75.671 576.603
lowerback 9.59108 0.0491835 3.09931
upperback -11.7969 2.28375 5.8194
thorax -19.3077 1.51289 4.41124
lowerneck -11.1874 -3.42412 -5.49422
upperneck 27.7758 -3.33312 1.56529
head 10.9265 -1.60615 1.14409
rclavicle 1.96797e-014 -4.6118e-014
rhumerus -52.7431 40.6327 -98.7931
rradius 46.1736
rwrist -13.6078
rhand -23.7652 -16.6063
rfingers 7.12502
rthumb 2.70411 -46.5689
lclavicle 1.96797e-014 -4.6118e-014
lhumerus -49.0445 7.03029 84.1184
lradius 32.9664
lwrist -14.9759
lhand -24.9013 32.5317
lfingers 7.12502
lthumb 1.60689 62.5054
rfemur 7.16271 12.5098 47.9627
rtibia -8.9613
rfoot -21.7007 -21.9005
rtoes -7.88875
lfemur -42.4654 -15.74 -3.96332
ltibia 19.2017
lfoot 0.305013 19.5984
ltoes -74.9383
529
root -20.1986 15.5703 -6.12209 228.803 75.8817 579.835
lowerback 9.22781 0.236055 3.62443
upperback -11.8123 2.63426 5.85789
thorax -19.0861 1.60556 4.06453
lowerneck -11.2303 -3.3571 -5.33798
upperneck 26.9513 -3.2589 1.32978
head 10.615 -1.60219 1.03516
rclavicle -7.15625e-015 4.37326e-014
rhumerus -53.7279 41.1448 -99.773
rradius 46.1941
rwrist -13.21
rhand -23.7136 -15.6355
rfingers 7.12502
rthumb 2.75396 -45.5975
lclavicle -7.15625e-015 4.37326e-014
lhumerus -49.9493 8.38879 82.0122
lradius 31.8502
lwrist -15.5401
lhand -25.1138 32.801
lfingers 7.12502
lthumb 1.40164 62.7762
rfemur 7.84142 11.9175 48.3655
rtibia -9.0677
rfoot -27.3277 -20.1674
rtoes 0.902234
lfemur -43.0467 -18.998 -1.02294
ltibia 15.1208
lfoot -2.2371 21.0843
ltoes -74.4152
530
root -19.9763 15.5342 -6.16939 232.606 76.1911 583.566
lowerback 8.89367 0.47368 4.05786
upperback -11.8248 3.03909 5.91742
thorax -18.8848 1.7402 3.78559
lowerneck -12.2057 -3.45157 -5.27224
upperneck 27.7121 -3.27984 1.09512
head 11.0905 -1.6296 0.925766
rclavicle -2.36554e-014 3.4191e-014
rhumerus -54.8694 41.6002 -100.793
rradius 46.0484
rwrist -12.7633
rhand -23.1938 -15.092
rfingers 7.12502
rthumb 3.25597 -45.0468
lclavicle -2.36554e-014 3.4191e-014
lhumerus -51.0917 9.87508 79.686
lradius 30.9022
lwrist -16.1838
lhand -24.6047 32.9878
lfingers 7.12502
lthumb 1.8933 62.9591
rfemur 8.6695 11.444 48.7227
rtibia -9.16754
rfoot -19.2971 -19.368
rtoes -12.0651
lfemur -43.678 -21.8765 1.79881
ltibia 11.9632
lfoot -7.13537 22.0181
ltoes -72.4274
531
root -19.7466 15.4851 -6.22126 236.052 76.4358 586.751
lowerback 8.37616 0.649754 4.55482
upperback -11.9682 3.35304 5.87652
thorax -18.7103 1.82035 3.38574
lowerneck -12.7476 -3.46205 -4.02993
upperneck 28.1147 -3.14273 -0.379396
head 11.2936 -1.61547 0.187323
rclavicle 3.43897e-014 3.02153e-014
rhumerus -55.9734 41.8368 -101.85
rradius 45.606
rwrist -12.283
rhand -22.0205 -15.19
rfingers 7.12502
rthumb 4.38898 -45.1245
lclavicle 3.43897e-014 3.02153e-014
lhumerus -52.5577 11.0224 77.2733
lradius 30.0746
lwrist -16.3944
lhand -24.551 32.513
lfingers 7.12502
lthumb 1.9452 62.4838
rfemur 9.36073 10.9308 48.9409
rtibia -9.27768
rfoot -19.5481 -18.1454
rtoes -12.993
lfemur -44.7901 -23.7188 3.80112
ltibia 9.98435
lfoot -6.62616 22.312
ltoes -72.6354
532
root -19.512 15.4282 -6.27736 239.445 76.6089 589.834
lowerback 7.85703 0.798857 5.11072
upperback -12.1647 3.63987 5.81146
thorax -18.5951 1.88073 2.9394
lowerneck -12.6125 -3.49697 -4.43113
upperneck 27.7714 -3.14026 -0.310059
head 11.1474 -1.65462 0.283342
rclavicle 9.34288e-015 -3.10104e-014
rhumerus -56.9087 41.8662 -102.868
rradius 44.715
rwrist -11.6424
rhand -21.7704 -15.5452
rfingers 7.12502
rthumb 4.63044 -45.4746
lclavicle 9.34288e-015 -3.10104e-014
lhumerus -54.1655 11.8385 74.8843
lradius 29.3526
lwrist -16.3599
lhand -24.6567 32.9274
lfingers 7.12502
lthumb 1.84311 62.8992
rfemur 9.95449 10.3867 49.1002
rtibia -9.19399
rfoot -20.0876 -16.5624
rtoes -12.0139
lfemur -45.7215 -24.2924 4.50362
ltibia 9.27112
lfoot -7.02522 22.7075
ltoes -72.6293
533
root -19.2702 15.3721 -6.33214 243.266 76.8342 593.494
lowerback 7.46441 1.00484 5.50479
upperback -12.2864 3.98266 5.80939
thorax -18.4787 1.99363 2.64538
lowerneck -12.3989 -3.49741 -4.38925
upperneck 27.2735 -3.10962 -0.595471
head 10.9104 -1.67791 0.181456
rclavicle 1.64991e-014 5.88403e-014
rhumerus -57.4779 41.554 -103.45
rradius 43.4371
rwrist -10.6613
rhand -21.9209 -15.7372
rfingers 7.12502
rthumb 4.48514 -45.6698
lclavicle 1.64991e-014 5.88403e-014
lhumerus -55.7485 12.6763 72.4685
lradius 28.6504
lwrist -16.5433
lhand -24.5883 33.7155
lfingers 7.12502
lthumb 1.90923 63.6867
rfemur 10.6005 9.9086 49.2328
rtibia -8.78695
rfoot -20.0338 -15.1816
rtoes -13.3389
lfemur -45.8571 -23.8167 3.78387
ltibia 9.70196
lfoot -7.08367 21.4526
ltoes -71.574
534
root -19.0181 15.3171 -6.38663 246.586 76.948 596.668
lowerback 7.07962 1.16384 5.89783
upperback -12.4374 4.2636 5.80561
thorax -18.4021 2.07995 2.36915
lowerneck -12.3634 -3.31282 -3.56134
upperneck 27.269 -2.84939 -1.29511
head 10.8657 -1.55679 -0.175514
rclavicle -9.54166e-015 -8.26944e-014
rhumerus -57.8316 40.8439 -103.668
rradius 41.9765
rwrist -9.90706
rhand -21.703 -15.9976
rfingers 7.12502
rthumb 4.69558 -45.9255
lclavicle -9.54166e-015 -8.26944e-014
lhumerus -57.4355 13.5166 69.9186
lradius 27.9609
lwrist -17.1258
lhand -24.4668 33.7466
lfingers 7.12502
lthumb 2.02654 63.7167
rfemur 11.1895 9.25921 49.3354
rtibia -8.23348
rfoot -19.886 -14.0003
rtoes -14.9297
lfemur -45.8423 -22.8499 2.2135
ltibia 11.4299
lfoot -6.56039 18.9491
ltoes -71.6666
